<?xml version="1.0" encoding="UTF-8" standalone="no"?>
<svg
   viewBox="0 0 64 64"
   id="svg864"
   inkscape:version="1.1 (c68e22c387, 2021-05-23)"
   sodipodi:docname="security-64.svg"
   version="1.1"
   xmlns:inkscape="http://www.inkscape.org/namespaces/inkscape"
   xmlns:sodipodi="http://sodipodi.sourceforge.net/DTD/sodipodi-0.dtd"
   xmlns="http://www.w3.org/2000/svg"
   xmlns:svg="http://www.w3.org/2000/svg">
  <defs
     id="defs868" />
  <sodipodi:namedview
     id="namedview866"
     pagecolor="#ffffff"
     bordercolor="#666666"
     borderopacity="1.0"
     inkscape:pageshadow="2"
     inkscape:pageopacity="0.0"
     inkscape:pagecheckerboard="0"
     showgrid="false"
     inkscape:zoom="16.203125"
     inkscape:cx="32"
     inkscape:cy="32"
     inkscape:window-width="2400"
     inkscape:window-height="1271"
     inkscape:window-x="2391"
     inkscape:window-y="-9"
     inkscape:window-maximized="1"
     inkscape:current-layer="svg864" />
  <g
     id="surface1">
    <path
       style=" stroke:none;fill-rule:nonzero;fill:rgb(1.176471%,43.921569%,78.431373%);fill-opacity:1;"
       d="M 32 58.667969 C 31.265625 58.667969 30.667969 58.070312 30.667969 57.332031 C 30.667969 56.597656 31.265625 56 32 56 Z M 32 58.667969 "
       id="path847" />
    <path
       style=" stroke:none;fill-rule:nonzero;fill:rgb(5.882353%,31.372549%,58.039216%);fill-opacity:1;"
       d="M 33.332031 57.332031 C 33.332031 58.070312 32.734375 58.667969 32 58.667969 L 32 56 C 32.734375 56 33.332031 56.597656 33.332031 57.332031 Z M 33.332031 57.332031 "
       id="path849" />
    <path
       style=" stroke:none;fill-rule:nonzero;fill:rgb(3.137255%,51.372549%,85.098039%);fill-opacity:1;"
       d="M 57.332031 14.667969 C 57.332031 15.402344 56.738281 16 56 16 C 55.261719 16 54.667969 15.402344 54.667969 14.667969 C 54.667969 13.929688 55.261719 13.332031 56 13.332031 C 56.738281 13.332031 57.332031 13.929688 57.332031 14.667969 Z M 57.332031 14.667969 "
       id="path851" />
    <path
       style=" stroke:none;fill-rule:nonzero;fill:rgb(20%,74.901961%,94.117647%);fill-opacity:1;"
       d="M 9.332031 14.667969 C 9.332031 15.402344 8.738281 16 8 16 C 7.261719 16 6.667969 15.402344 6.667969 14.667969 C 6.667969 13.929688 7.261719 13.332031 8 13.332031 C 8.738281 13.332031 9.332031 13.929688 9.332031 14.667969 Z M 9.332031 14.667969 "
       id="path853" />
    <path
       style=" stroke:none;fill-rule:nonzero;fill:rgb(5.882353%,31.372549%,58.039216%);fill-opacity:1;"
       d="M 32 57.332031 L 32.570312 58.542969 C 32.570312 58.542969 52.761719 48.007812 56.675781 32 L 32 32 Z M 32 57.332031 "
       id="path855" />
    <path
       style=" stroke:none;fill-rule:nonzero;fill:rgb(3.137255%,51.372549%,85.098039%);fill-opacity:1;"
       d="M 57.332031 14.667969 L 56 13.332031 C 41.171875 13.332031 40.960938 5.332031 32 5.332031 L 32 32 L 56.675781 32 C 57.097656 30.28125 57.332031 28.503906 57.332031 26.667969 C 57.332031 22.476562 57.332031 14.667969 57.332031 14.667969 Z M 57.332031 14.667969 "
       id="path857" />
    <path
       style=" stroke:none;fill-rule:nonzero;fill:rgb(1.176471%,43.921569%,78.431373%);fill-opacity:1;"
       d="M 32 57.332031 L 31.429688 58.542969 C 31.429688 58.542969 11.238281 48.007812 7.324219 32 L 32 32 Z M 32 57.332031 "
       id="path859" />
    <path
       style=" stroke:none;fill-rule:nonzero;fill:rgb(20%,74.901961%,94.117647%);fill-opacity:1;"
       d="M 6.667969 14.667969 L 8 13.332031 C 22.828125 13.332031 23.039062 5.332031 32 5.332031 L 32 32 L 7.324219 32 C 6.902344 30.28125 6.667969 28.503906 6.667969 26.667969 C 6.667969 22.476562 6.667969 14.667969 6.667969 14.667969 Z M 6.667969 14.667969 "
       id="path861" />
  </g>
</svg>
